<mxfile host="app.diagrams.net" modified="2023-06-22T21:20:04.176Z" agent="Mozilla/5.0 (Windows NT 10.0; Win64; x64) AppleWebKit/537.36 (KHTML, like Gecko) Chrome/114.0.0.0 Safari/537.36 Edg/114.0.1823.51" etag="9UTq9m89wKzjNw6j1w_V" version="21.3.8" type="device">
  <diagram id="OW5FWZqznEHbSN0AupRL" name="Pagina-1">
    <mxGraphModel dx="5254" dy="4322" grid="1" gridSize="10" guides="1" tooltips="1" connect="1" arrows="1" fold="1" page="1" pageScale="1" pageWidth="1654" pageHeight="2336" background="none" math="0" shadow="0">
      <root>
        <mxCell id="0" />
        <mxCell id="1" parent="0" />
        <mxCell id="node8" value="&lt;p style=&quot;margin: 4px 0px 0px; text-align: center; line-height: 140%;&quot;&gt;&lt;b&gt;BeginningConfiguration&lt;/b&gt;&lt;/p&gt;&lt;hr style=&quot;line-height: 140%;&quot; size=&quot;1&quot;&gt;&lt;p style=&quot;margin: 0px 0px 0px 4px; line-height: 140%;&quot;&gt;+ BeginningConfiguration(String, List&amp;lt;Block&amp;gt;): &lt;/p&gt;&lt;hr style=&quot;line-height: 140%;&quot; size=&quot;1&quot;&gt;&lt;p style=&quot;margin: 0px 0px 0px 4px; line-height: 140%;&quot;&gt;- blocks: List&amp;lt;Block&amp;gt;&lt;br&gt;- name: String&lt;/p&gt;&lt;hr style=&quot;line-height: 140%;&quot; size=&quot;1&quot;&gt;&lt;p style=&quot;margin: 0px 0px 0px 4px; line-height: 140%;&quot;&gt;+ fromJSON(JSONObject): BeginningConfiguration&lt;br&gt;+ toJSON(): JSONObject&lt;/p&gt;&lt;hr style=&quot;line-height: 140%;&quot; size=&quot;1&quot;&gt;&lt;p style=&quot;margin: 0px 0px 0px 4px; line-height: 140%;&quot;&gt; blocks: List&amp;lt;Block&amp;gt;&lt;br&gt; name: String&lt;/p&gt;" style="verticalAlign=top;align=left;overflow=fill;fontSize=14;fontFamily=Helvetica;html=1;rounded=0;shadow=0;comic=0;labelBackgroundColor=none;strokeWidth=1;" parent="1" vertex="1">
          <mxGeometry x="-1630" y="-660" width="349" height="230" as="geometry" />
        </mxCell>
        <mxCell id="node14" value="&lt;p style=&quot;margin: 4px 0px 0px; text-align: center; line-height: 90%;&quot;&gt;&lt;b&gt;Block&lt;/b&gt;&lt;/p&gt;&lt;hr style=&quot;line-height: 140%;&quot; size=&quot;1&quot;&gt;&lt;p style=&quot;margin: 0px 0px 0px 4px; line-height: 140%;&quot;&gt;+ Block(Point2D, int, int): &lt;/p&gt;&lt;hr style=&quot;line-height: 140%;&quot; size=&quot;1&quot;&gt;&lt;p style=&quot;margin: 0px 0px 0px 4px; line-height: 140%;&quot;&gt;- height: int&lt;br&gt;- mainBlock: boolean&lt;br&gt;- width: int&lt;/p&gt;&lt;hr style=&quot;line-height: 140%;&quot; size=&quot;1&quot;&gt;&lt;p style=&quot;margin: 0px 0px 0px 4px; line-height: 140%;&quot;&gt;+ clone(): Block&lt;br&gt;+ equals(Block): boolean&lt;br&gt;+ fromJSON(JSONObject): Block&lt;br&gt;+ pointIsIn(Point2D): boolean&lt;br&gt;+ toJSON(): JSONObject&lt;br&gt;+ toString(): String&lt;/p&gt;&lt;hr style=&quot;line-height: 140%;&quot; size=&quot;1&quot;&gt;&lt;p style=&quot;margin: 0px 0px 0px 4px; line-height: 140%;&quot;&gt; dim: int&lt;br&gt; height: int&lt;br&gt; mainBlock: boolean&lt;br&gt; pos: Point2D&lt;br&gt; vertical: boolean&lt;br&gt; width: int&lt;/p&gt;" style="verticalAlign=top;align=left;overflow=fill;fontSize=14;fontFamily=Helvetica;html=1;rounded=0;shadow=0;comic=0;labelBackgroundColor=none;strokeWidth=1;" parent="1" vertex="1">
          <mxGeometry x="-1290" y="-390" width="236" height="390" as="geometry" />
        </mxCell>
        <mxCell id="node11" value="&lt;p style=&quot;margin: 4px 0px 0px; text-align: center; line-height: 140%;&quot;&gt;&lt;b&gt;Board&lt;/b&gt;&lt;/p&gt;&lt;hr style=&quot;line-height: 140%;&quot; size=&quot;1&quot;&gt;&lt;p style=&quot;margin: 0px 0px 0px 4px; line-height: 140%;&quot;&gt;+ Board(int, int, List&amp;lt;Block&amp;gt;): &lt;/p&gt;&lt;hr style=&quot;line-height: 140%;&quot; size=&quot;1&quot;&gt;&lt;p style=&quot;margin: 0px 0px 0px 4px; line-height: 140%;&quot;&gt;- blocks: List&amp;lt;Block&amp;gt;&lt;br&gt;- height: int&lt;br&gt;- width: int&lt;/p&gt;&lt;hr style=&quot;line-height: 140%;&quot; size=&quot;1&quot;&gt;&lt;p style=&quot;margin: 0px 0px 0px 4px; line-height: 140%;&quot;&gt;- checkValidMove(Move): boolean&lt;br&gt;+ checkWin(): boolean&lt;br&gt;+ clone(): Board&lt;br&gt;- downVerticalMovement(Point2D, Point2D): boolean&lt;br&gt;+ equals(Board): boolean&lt;br&gt;+ findBlockByPosition(Point2D): Block&lt;br&gt;+ fromJSON(JSONObject): Board&lt;br&gt;- horizontalMovement(Point2D, Point2D): boolean&lt;br&gt;- isInBoard(Point2D): boolean&lt;br&gt;+ move(Move): boolean&lt;br&gt;- rightHorizontalMovement(Point2D, Point2D): boolean&lt;br&gt;- routeIsValid(List&amp;lt;Point2D&amp;gt;): boolean&lt;br&gt;+ toJSON(): JSONObject&lt;br&gt;- verticalMovement(Point2D, Point2D): boolean&lt;/p&gt;&lt;hr style=&quot;line-height: 140%;&quot; size=&quot;1&quot;&gt;&lt;p style=&quot;margin: 0px 0px 0px 4px; line-height: 140%;&quot;&gt; blocks: List&amp;lt;Block&amp;gt;&lt;br&gt; height: int&lt;br&gt; width: int&lt;/p&gt;" style="verticalAlign=top;align=left;overflow=fill;fontSize=14;fontFamily=Helvetica;html=1;rounded=0;shadow=0;comic=0;labelBackgroundColor=none;strokeWidth=1;" parent="1" vertex="1">
          <mxGeometry x="-792.5" y="-930" width="379" height="500" as="geometry" />
        </mxCell>
        <mxCell id="node16" value="&lt;p style=&quot;margin: 4px 0px 0px; text-align: center; line-height: 130%;&quot;&gt;&lt;b&gt;Game&lt;/b&gt;&lt;/p&gt;&lt;hr style=&quot;line-height: 130%;&quot; size=&quot;1&quot;&gt;&lt;p style=&quot;margin: 0px 0px 0px 4px; line-height: 130%;&quot;&gt;+ Game(): &lt;/p&gt;&lt;hr style=&quot;line-height: 130%;&quot; size=&quot;1&quot;&gt;&lt;p style=&quot;margin: 0px 0px 0px 4px; line-height: 130%;&quot;&gt;- board: Board&lt;br&gt;- gameStarted: boolean&lt;br&gt;- progress: GameProgress&lt;/p&gt;&lt;hr style=&quot;line-height: 130%;&quot; size=&quot;1&quot;&gt;&lt;p style=&quot;margin: 0px 0px 0px 4px; line-height: 130%;&quot;&gt;+ addListener(Observer): void&lt;br&gt;+ loadGame(SavedGame, LevelSolution): boolean&lt;br&gt;+ makeMove(Move): boolean&lt;br&gt;+ notifyListener(int, boolean): void&lt;br&gt;+ removeListener(Observer): void&lt;br&gt;+ resetGame(): boolean&lt;br&gt;+ saveGame(): SavedGame&lt;br&gt;+ startGame(BeginningConfiguration, LevelSolution): boolean&lt;br&gt;+ stopGame(): void&lt;br&gt;+ undoMove(): boolean&lt;/p&gt;&lt;hr style=&quot;line-height: 130%;&quot; size=&quot;1&quot;&gt;&lt;p style=&quot;margin: 0px 0px 0px 4px; line-height: 130%;&quot;&gt; board: Board&lt;br&gt; gameStarted: boolean&lt;br&gt; help: boolean&lt;br&gt; progress: GameProgress&lt;/p&gt;" style="verticalAlign=top;align=left;overflow=fill;fontSize=14;fontFamily=Helvetica;html=1;rounded=0;shadow=0;comic=0;labelBackgroundColor=none;strokeWidth=1;" parent="1" vertex="1">
          <mxGeometry x="-811" y="-1390" width="416" height="420" as="geometry" />
        </mxCell>
        <mxCell id="node2" value="&lt;p style=&quot;margin: 4px 0px 0px; text-align: center; line-height: 140%;&quot;&gt;&lt;b&gt;GameController&lt;/b&gt;&lt;/p&gt;&lt;hr style=&quot;line-height: 140%;&quot; size=&quot;1&quot;&gt;&lt;p style=&quot;margin: 0px 0px 0px 4px; line-height: 140%;&quot;&gt;+ GameController(): &lt;/p&gt;&lt;hr style=&quot;line-height: 140%;&quot; size=&quot;1&quot;&gt;&lt;p style=&quot;margin: 0px 0px 0px 4px; line-height: 140%;&quot;&gt;+ loadAllConfigurations(): List&amp;lt;String&amp;gt;&lt;br&gt;+ loadGameSaves(): List&amp;lt;String&amp;gt;&lt;br&gt;+ makeMove(Point2D, Point2D): boolean&lt;br&gt;+ resetGame(): boolean&lt;br&gt;+ saveGame(): boolean&lt;br&gt;+ startNewGame(String): boolean&lt;br&gt;+ startSavedGame(String): boolean&lt;br&gt;+ stopGame(): void&lt;br&gt;+ undoMove(): boolean&lt;/p&gt;&lt;hr style=&quot;line-height: 140%;&quot; size=&quot;1&quot;&gt;&lt;p style=&quot;margin: 0px 0px 0px 4px; line-height: 140%;&quot;&gt; actualBoard: Board&lt;br&gt; gameObservable: Observable&lt;br&gt; help: boolean&lt;br&gt; instance: GameController&lt;br&gt; movesCount: int&lt;/p&gt;" style="verticalAlign=top;align=left;overflow=fill;fontSize=14;fontFamily=Helvetica;html=1;rounded=0;shadow=0;comic=0;labelBackgroundColor=none;strokeWidth=1;" parent="1" vertex="1">
          <mxGeometry x="-747" y="-1800" width="288" height="370" as="geometry" />
        </mxCell>
        <mxCell id="node0" value="&lt;p style=&quot;margin: 4px 0px 0px; text-align: center; line-height: 130%;&quot;&gt;&lt;b&gt;GameView&lt;/b&gt;&lt;/p&gt;&lt;hr style=&quot;line-height: 130%;&quot; size=&quot;1&quot;&gt;&lt;p style=&quot;margin: 0px 0px 0px 4px; line-height: 130%;&quot;&gt;+ GameView(): &lt;/p&gt;&lt;hr style=&quot;line-height: 130%;&quot; size=&quot;1&quot;&gt;&lt;p style=&quot;margin: 0px 0px 0px 4px; line-height: 130%;&quot;&gt;- blockMovementHandler(Pane, MouseEvent): void&lt;br&gt;+ initialize(): void&lt;br&gt;- moveBlock(Pane, Point2D, MOVEMENT): void&lt;br&gt;# onBackButtonClick(): void&lt;br&gt;# onHelpButtonClick(): void&lt;br&gt;# onResetButtonClick(): void&lt;br&gt;# onSaveButtonClick(): void&lt;br&gt;# onUndoButtonClick(): void&lt;br&gt;- setInvalidMoveAnimation(Node): Animation&lt;br&gt;- setPaneBlock(Block): Pane&lt;br&gt;- showBoard(List&amp;lt;Block&amp;gt;): void&lt;br&gt;+ update(int, boolean): void&lt;/p&gt;" style="verticalAlign=top;align=left;overflow=fill;fontSize=14;fontFamily=Helvetica;html=1;rounded=0;shadow=0;comic=0;labelBackgroundColor=none;strokeWidth=1;" parent="1" vertex="1">
          <mxGeometry x="-386" y="-2050" width="352" height="300" as="geometry" />
        </mxCell>
        <mxCell id="node15" value="&lt;p style=&quot;margin: 4px 0px 0px; text-align: center; line-height: 140%;&quot;&gt;&lt;b&gt;HomeView&lt;/b&gt;&lt;/p&gt;&lt;hr style=&quot;line-height: 140%;&quot; size=&quot;1&quot;&gt;&lt;p style=&quot;margin: 0px 0px 0px 4px; line-height: 140%;&quot;&gt;+ HomeView(): &lt;/p&gt;&lt;hr style=&quot;line-height: 140%;&quot; size=&quot;1&quot;&gt;&lt;p style=&quot;margin: 0px 0px 0px 4px; line-height: 140%;&quot;&gt;+ initialize(): void&lt;br&gt;# onChooseConfigButtonClick(): void&lt;br&gt;# onChooseConfigurationComboBoxClick(): void&lt;br&gt;# onLoadGameButtonClick(): void&lt;br&gt;# onLoadGameComboBoxClick(): void&lt;br&gt;# onStartButtonClick(): void&lt;br&gt;# onVBoxHomeMouseClicked(): void&lt;br&gt;- resetComboBox(): void&lt;/p&gt;" style="verticalAlign=top;align=left;overflow=fill;fontSize=14;fontFamily=Helvetica;html=1;rounded=0;shadow=0;comic=0;labelBackgroundColor=none;strokeWidth=1;" parent="1" vertex="1">
          <mxGeometry x="-1160" y="-2050" width="339" height="240" as="geometry" />
        </mxCell>
        <mxCell id="node12" value="&lt;p style=&quot;margin:0px;margin-top:4px;text-align:center;&quot;&gt;&lt;b&gt;KlotskiApp&lt;/b&gt;&lt;/p&gt;&lt;hr size=&quot;1&quot;/&gt;&lt;p style=&quot;margin:0 0 0 4px;line-height:1.6;&quot;&gt;+ KlotskiApp(): &lt;/p&gt;&lt;hr size=&quot;1&quot;/&gt;&lt;p style=&quot;margin:0 0 0 4px;line-height:1.6;&quot;&gt;+ main(String[]): void&lt;br/&gt;+ navigateToGame(Stage): void&lt;br/&gt;+ navigateToHome(Stage): void&lt;br/&gt;+ start(Stage): void&lt;/p&gt;" style="verticalAlign=top;align=left;overflow=fill;fontSize=14;fontFamily=Helvetica;html=1;rounded=0;shadow=0;comic=0;labelBackgroundColor=none;strokeWidth=1;" parent="1" vertex="1">
          <mxGeometry x="-690" y="-2186" width="231" height="171" as="geometry" />
        </mxCell>
        <mxCell id="node5" value="&lt;p style=&quot;margin:0px;margin-top:4px;text-align:center;&quot;&gt;&lt;b&gt;Launcher&lt;/b&gt;&lt;/p&gt;&lt;hr size=&quot;1&quot;/&gt;&lt;p style=&quot;margin:0 0 0 4px;line-height:1.6;&quot;&gt;+ Launcher(): &lt;/p&gt;&lt;hr size=&quot;1&quot;/&gt;&lt;p style=&quot;margin:0 0 0 4px;line-height:1.6;&quot;&gt;+ main(String[]): void&lt;/p&gt;" style="verticalAlign=top;align=left;overflow=fill;fontSize=14;fontFamily=Helvetica;html=1;rounded=0;shadow=0;comic=0;labelBackgroundColor=none;strokeWidth=1;" parent="1" vertex="1">
          <mxGeometry x="-660" y="-2336" width="168" height="106" as="geometry" />
        </mxCell>
        <mxCell id="node7" value="&lt;p style=&quot;margin:0px;margin-top:4px;text-align:center;&quot;&gt;&lt;b&gt;LevelSolution&lt;/b&gt;&lt;/p&gt;&lt;hr size=&quot;1&quot;/&gt;&lt;p style=&quot;margin:0 0 0 4px;line-height:1.6;&quot;&gt;+ LevelSolution(ArrayList&amp;lt;Pair&amp;lt;Board, Move&amp;gt;&amp;gt;): &lt;/p&gt;&lt;hr size=&quot;1&quot;/&gt;&lt;p style=&quot;margin:0 0 0 4px;line-height:1.6;&quot;&gt;+ fromJSON(JSONObject): LevelSolution&lt;br/&gt;+ getMove(Board): Move&lt;br/&gt;+ toJSON(): JSONObject&lt;/p&gt;&lt;hr size=&quot;1&quot;/&gt;&lt;p style=&quot;margin:0 0 0 4px;line-height:1.6;&quot;&gt; boardsMovs: ArrayList&amp;lt;Pair&amp;lt;Board, Move&amp;gt;&amp;gt;&lt;/p&gt;" style="verticalAlign=top;align=left;overflow=fill;fontSize=14;fontFamily=Helvetica;html=1;rounded=0;shadow=0;comic=0;labelBackgroundColor=none;strokeWidth=1;" parent="1" vertex="1">
          <mxGeometry x="-351" y="-700" width="342" height="158" as="geometry" />
        </mxCell>
        <mxCell id="node13" value="&lt;p style=&quot;margin: 4px 0px 0px; text-align: center; line-height: 120%;&quot;&gt;&lt;b&gt;Move&lt;/b&gt;&lt;/p&gt;&lt;hr style=&quot;line-height: 120%;&quot; size=&quot;1&quot;&gt;&lt;p style=&quot;margin: 0px 0px 0px 4px; line-height: 120%;&quot;&gt;+ Move(Block, Point2D, Point2D): &lt;/p&gt;&lt;hr style=&quot;line-height: 120%;&quot; size=&quot;1&quot;&gt;&lt;p style=&quot;margin: 0px 0px 0px 4px; line-height: 120%;&quot;&gt;~ block: Block&lt;/p&gt;&lt;hr style=&quot;line-height: 120%;&quot; size=&quot;1&quot;&gt;&lt;p style=&quot;margin: 0px 0px 0px 4px; line-height: 120%;&quot;&gt;+ fromJSON(JSONObject): Move&lt;br&gt;+ toJSON(): JSONObject&lt;/p&gt;&lt;hr style=&quot;line-height: 120%;&quot; size=&quot;1&quot;&gt;&lt;p style=&quot;margin: 0px 0px 0px 4px; line-height: 120%;&quot;&gt; block: Block&lt;br&gt; dest: Point2D&lt;br&gt; start: Point2D&lt;/p&gt;" style="verticalAlign=top;align=left;overflow=fill;fontSize=14;fontFamily=Helvetica;html=1;rounded=0;shadow=0;comic=0;labelBackgroundColor=none;strokeWidth=1;" parent="1" vertex="1">
          <mxGeometry x="-1170" y="-640" width="248" height="200" as="geometry" />
        </mxCell>
        <mxCell id="node1" value="&lt;p style=&quot;margin: 4px 0px 0px; text-align: center; line-height: 110%;&quot;&gt;&lt;b&gt;NextBestMove&lt;/b&gt;&lt;/p&gt;&lt;hr style=&quot;line-height: 110%;&quot; size=&quot;1&quot;&gt;&lt;p style=&quot;margin: 0px 0px 0px 4px; line-height: 110%;&quot;&gt;+ NextBestMove(LevelSolution): &lt;/p&gt;&lt;hr style=&quot;line-height: 110%;&quot; size=&quot;1&quot;&gt;&lt;p style=&quot;margin: 0px 0px 0px 4px; line-height: 110%;&quot;&gt;+ suggestMove(Board): Move&lt;/p&gt;" style="verticalAlign=top;align=left;overflow=fill;fontSize=14;fontFamily=Helvetica;html=1;rounded=0;shadow=0;comic=0;labelBackgroundColor=none;strokeWidth=1;" parent="1" vertex="1">
          <mxGeometry x="-298" y="-900" width="236" height="97" as="geometry" />
        </mxCell>
        <mxCell id="node6" value="&lt;p style=&quot;margin:0px;margin-top:4px;text-align:center;&quot;&gt;&lt;i&gt;&amp;lt;&amp;lt;interface&amp;gt;&amp;gt;&lt;/i&gt;&lt;br/&gt;&lt;b&gt;Observable&lt;/b&gt;&lt;/p&gt;&lt;hr size=&quot;1&quot;/&gt;&lt;p style=&quot;margin:0 0 0 4px;line-height:1.6;&quot;&gt;+ addListener(Observer): void&lt;br/&gt;+ notifyListener(int, boolean): void&lt;br/&gt;+ removeListener(Observer): void&lt;/p&gt;" style="verticalAlign=top;align=left;overflow=fill;fontSize=14;fontFamily=Helvetica;html=1;rounded=0;shadow=0;comic=0;labelBackgroundColor=none;strokeWidth=1;" parent="1" vertex="1">
          <mxGeometry x="-281.5" y="-1210" width="251" height="135" as="geometry" />
        </mxCell>
        <mxCell id="node4" value="&lt;p style=&quot;margin:0px;margin-top:4px;text-align:center;&quot;&gt;&lt;i&gt;&amp;lt;&amp;lt;interface&amp;gt;&amp;gt;&lt;/i&gt;&lt;br/&gt;&lt;b&gt;Observer&lt;/b&gt;&lt;/p&gt;&lt;hr size=&quot;1&quot;/&gt;&lt;p style=&quot;margin:0 0 0 4px;line-height:1.6;&quot;&gt;+ update(int, boolean): void&lt;/p&gt;" style="verticalAlign=top;align=left;overflow=fill;fontSize=14;fontFamily=Helvetica;html=1;rounded=0;shadow=0;comic=0;labelBackgroundColor=none;strokeWidth=1;" parent="1" vertex="1">
          <mxGeometry x="-260" y="-1710" width="208" height="78" as="geometry" />
        </mxCell>
        <mxCell id="node9" value="&lt;p style=&quot;margin:0px;margin-top:4px;text-align:center;&quot;&gt;&lt;b&gt;PersistenceDataService&lt;/b&gt;&lt;/p&gt;&lt;hr size=&quot;1&quot;/&gt;&lt;p style=&quot;margin:0 0 0 4px;line-height:1.6;&quot;&gt;+ PersistenceDataService(): &lt;/p&gt;&lt;hr size=&quot;1&quot;/&gt;&lt;p style=&quot;margin:0 0 0 4px;line-height:1.6;&quot;&gt;+ loadAllConfigurations(): List&amp;lt;String&amp;gt;&lt;br/&gt;+ loadAllGameData(): List&amp;lt;String&amp;gt;&lt;br/&gt;+ loadConfig(String): BeginningConfiguration?&lt;br/&gt;+ loadGameData(String): SavedGame?&lt;br/&gt;+ loadSolution(BeginningConfiguration): LevelSolution?&lt;br/&gt;+ saveGameData(SavedGame): boolean&lt;br/&gt;+ saveSolution(LevelSolution, String): boolean&lt;/p&gt;" style="verticalAlign=top;align=left;overflow=fill;fontSize=14;fontFamily=Helvetica;html=1;rounded=0;shadow=0;comic=0;labelBackgroundColor=none;strokeWidth=1;" parent="1" vertex="1">
          <mxGeometry x="-1220" y="-1719.25" width="378" height="208.5" as="geometry" />
        </mxCell>
        <mxCell id="node10" value="&lt;p style=&quot;margin:0px;margin-top:4px;text-align:center;&quot;&gt;&lt;b&gt;SavedGame&lt;/b&gt;&lt;/p&gt;&lt;hr size=&quot;1&quot;/&gt;&lt;p style=&quot;margin:0 0 0 4px;line-height:1.6;&quot;&gt;+ SavedGame(Board, GameProgress, LocalDateTime): &lt;br/&gt;+ SavedGame(Board, GameProgress): &lt;/p&gt;&lt;hr size=&quot;1&quot;/&gt;&lt;p style=&quot;margin:0 0 0 4px;line-height:1.6;&quot;&gt;+ fromJSON(JSONObject): SavedGame&lt;br/&gt;+ toJSON(): JSONObject&lt;/p&gt;&lt;hr size=&quot;1&quot;/&gt;&lt;p style=&quot;margin:0 0 0 4px;line-height:1.6;&quot;&gt; gameProgress: GameProgress&lt;br/&gt; lastBoard: Board&lt;br/&gt; saveDate: LocalDateTime&lt;/p&gt;" style="verticalAlign=top;align=left;overflow=fill;fontSize=14;fontFamily=Helvetica;html=1;rounded=0;shadow=0;comic=0;labelBackgroundColor=none;strokeWidth=1;" parent="1" vertex="1">
          <mxGeometry x="-1610" y="-1310" width="372" height="231" as="geometry" />
        </mxCell>
        <mxCell id="edge5" value="" style="html=1;rounded=1;edgeStyle=orthogonalEdgeStyle;dashed=0;startArrow=diamondThinstartSize=12;endArrow=openThin;endSize=12;strokeColor=#595959;exitX=0.500;exitY=1.000;exitDx=0;exitDy=0;entryX=0.110;entryY=0.011;entryDx=0;entryDy=0;" parent="1" source="node8" target="node14" edge="1">
          <mxGeometry width="50" height="50" relative="1" as="geometry">
            <Array as="points" />
          </mxGeometry>
        </mxCell>
        <mxCell id="edge8" value="" style="html=1;rounded=1;edgeStyle=orthogonalEdgeStyle;dashed=0;startArrow=diamondThinstartSize=12;endArrow=openThin;endSize=12;strokeColor=#595959;exitX=0.500;exitY=1.000;exitDx=0;exitDy=0;entryX=0.895;entryY=0.000;entryDx=0;entryDy=0;" parent="1" source="node11" target="node14" edge="1">
          <mxGeometry width="50" height="50" relative="1" as="geometry">
            <Array as="points" />
          </mxGeometry>
        </mxCell>
        <mxCell id="edge12" value="" style="html=1;rounded=1;edgeStyle=orthogonalEdgeStyle;dashed=0;startArrow=diamondThinstartSize=12;endArrow=openThin;endSize=12;strokeColor=#595959;entryX=0.500;entryY=0.000;entryDx=0;entryDy=0;exitX=0.5;exitY=1;exitDx=0;exitDy=0;" parent="1" source="node16" target="node11" edge="1">
          <mxGeometry width="50" height="50" relative="1" as="geometry">
            <Array as="points" />
            <mxPoint x="-650" y="174" as="sourcePoint" />
          </mxGeometry>
        </mxCell>
        <mxCell id="edge11" value="" style="html=1;rounded=1;edgeStyle=orthogonalEdgeStyle;dashed=0;startArrow=diamondThinstartSize=12;endArrow=openThin;endSize=12;strokeColor=#595959;exitX=0;exitY=0.872;exitDx=0;exitDy=0;entryX=0.75;entryY=0;entryDx=0;entryDy=0;exitPerimeter=0;" parent="1" source="node16" target="node3" edge="1">
          <mxGeometry width="50" height="50" relative="1" as="geometry">
            <Array as="points" />
          </mxGeometry>
        </mxCell>
        <mxCell id="edge15" value="" style="html=1;rounded=1;edgeStyle=orthogonalEdgeStyle;dashed=0;startArrow=diamondThinstartSize=12;endArrow=openThin;endSize=12;strokeColor=#595959;exitX=1.005;exitY=0.874;exitDx=0;exitDy=0;entryX=0.500;entryY=0.000;entryDx=0;entryDy=0;exitPerimeter=0;" parent="1" source="node16" target="node1" edge="1">
          <mxGeometry width="50" height="50" relative="1" as="geometry">
            <Array as="points" />
          </mxGeometry>
        </mxCell>
        <mxCell id="edge1" value="" style="html=1;rounded=1;edgeStyle=orthogonalEdgeStyle;dashed=1;startArrow=none;endArrow=block;endSize=12;strokeColor=#008200;exitX=1.001;exitY=0.591;exitDx=0;exitDy=0;entryX=0.000;entryY=0.500;entryDx=0;entryDy=0;exitPerimeter=0;" parent="1" source="node16" target="node6" edge="1">
          <mxGeometry width="50" height="50" relative="1" as="geometry">
            <Array as="points" />
          </mxGeometry>
        </mxCell>
        <mxCell id="edge14" value="" style="html=1;rounded=1;edgeStyle=orthogonalEdgeStyle;dashed=0;startArrow=diamondThinstartSize=12;endArrow=openThin;endSize=12;strokeColor=#595959;exitX=1.000;exitY=0.026;exitDx=0;exitDy=0;entryX=0.250;entryY=0.999;entryDx=0;entryDy=0;" parent="1" source="node16" target="node4" edge="1">
          <mxGeometry width="50" height="50" relative="1" as="geometry">
            <Array as="points" />
          </mxGeometry>
        </mxCell>
        <mxCell id="edge2" value="" style="html=1;rounded=1;edgeStyle=orthogonalEdgeStyle;dashed=0;startArrow=diamondThinstartSize=12;endArrow=openThin;endSize=12;strokeColor=#595959;exitX=0.500;exitY=1.000;exitDx=0;exitDy=0;entryX=0.500;entryY=0.000;entryDx=0;entryDy=0;" parent="1" source="node2" target="node16" edge="1">
          <mxGeometry width="50" height="50" relative="1" as="geometry">
            <Array as="points" />
          </mxGeometry>
        </mxCell>
        <mxCell id="edge6" value="" style="html=1;rounded=1;edgeStyle=orthogonalEdgeStyle;dashed=0;startArrow=diamondThinstartSize=12;endArrow=openThin;endSize=12;strokeColor=#595959;exitX=0.158;exitY=1.000;exitDx=0;exitDy=0;entryX=0.849;entryY=-0.011;entryDx=0;entryDy=0;entryPerimeter=0;" parent="1" source="node3" target="node8" edge="1">
          <mxGeometry width="50" height="50" relative="1" as="geometry">
            <Array as="points" />
          </mxGeometry>
        </mxCell>
        <mxCell id="edge3" value="" style="html=1;rounded=1;edgeStyle=orthogonalEdgeStyle;dashed=0;startArrow=diamondThinstartSize=12;endArrow=openThin;endSize=12;strokeColor=#595959;exitX=0.865;exitY=0.994;exitDx=0;exitDy=0;entryX=0.500;entryY=0.000;entryDx=0;entryDy=0;exitPerimeter=0;" parent="1" source="node3" target="node13" edge="1">
          <mxGeometry width="50" height="50" relative="1" as="geometry">
            <Array as="points" />
          </mxGeometry>
        </mxCell>
        <mxCell id="edge9" value="" style="html=1;rounded=1;edgeStyle=orthogonalEdgeStyle;dashed=0;startArrow=diamondThinstartSize=12;endArrow=openThin;endSize=12;strokeColor=#595959;exitX=-0.002;exitY=0.695;exitDx=0;exitDy=0;entryX=0.500;entryY=0.000;entryDx=0;entryDy=0;exitPerimeter=0;" parent="1" source="node0" target="node2" edge="1">
          <mxGeometry width="50" height="50" relative="1" as="geometry">
            <Array as="points" />
          </mxGeometry>
        </mxCell>
        <mxCell id="edge0" value="" style="html=1;rounded=1;edgeStyle=orthogonalEdgeStyle;dashed=1;startArrow=none;endArrow=block;endSize=12;strokeColor=#008200;exitX=0.514;exitY=1;exitDx=0;exitDy=0;entryX=0.26;entryY=-0.026;entryDx=0;entryDy=0;entryPerimeter=0;exitPerimeter=0;" parent="1" source="node0" target="node4" edge="1">
          <mxGeometry width="50" height="50" relative="1" as="geometry">
            <Array as="points" />
          </mxGeometry>
        </mxCell>
        <mxCell id="edge4" value="" style="html=1;rounded=1;edgeStyle=orthogonalEdgeStyle;dashed=0;startArrow=diamondThinstartSize=12;endArrow=openThin;endSize=12;strokeColor=#595959;entryX=0.25;entryY=0;entryDx=0;entryDy=0;" parent="1" target="node2" edge="1">
          <mxGeometry width="50" height="50" relative="1" as="geometry">
            <Array as="points" />
            <mxPoint x="-766" y="-726" as="targetPoint" />
            <mxPoint x="-820" y="-1840" as="sourcePoint" />
          </mxGeometry>
        </mxCell>
        <mxCell id="edge7" value="" style="html=1;rounded=1;edgeStyle=orthogonalEdgeStyle;dashed=0;startArrow=diamondThinstartSize=12;endArrow=openThin;endSize=12;strokeColor=#595959;exitX=0.071;exitY=1.005;exitDx=0;exitDy=0;entryX=0.586;entryY=0.000;entryDx=0;entryDy=0;exitPerimeter=0;" parent="1" source="node13" target="node14" edge="1">
          <mxGeometry width="50" height="50" relative="1" as="geometry">
            <Array as="points" />
          </mxGeometry>
        </mxCell>
        <mxCell id="edge10" value="" style="html=1;rounded=1;edgeStyle=orthogonalEdgeStyle;dashed=0;startArrow=diamondThinstartSize=12;endArrow=openThin;endSize=12;strokeColor=#595959;exitX=0.500;exitY=1.000;exitDx=0;exitDy=0;entryX=0.500;entryY=0.000;entryDx=0;entryDy=0;" parent="1" source="node1" target="node7" edge="1">
          <mxGeometry width="50" height="50" relative="1" as="geometry">
            <Array as="points" />
          </mxGeometry>
        </mxCell>
        <mxCell id="edge16" value="" style="html=1;rounded=1;edgeStyle=orthogonalEdgeStyle;dashed=0;startArrow=diamondThinstartSize=12;endArrow=openThin;endSize=12;strokeColor=#595959;exitX=1.005;exitY=0.111;exitDx=0;exitDy=0;entryX=-0.001;entryY=0.034;entryDx=0;entryDy=0;exitPerimeter=0;entryPerimeter=0;" parent="1" source="node3" target="node11" edge="1">
          <mxGeometry width="50" height="50" relative="1" as="geometry">
            <Array as="points" />
          </mxGeometry>
        </mxCell>
        <mxCell id="edge13" value="" style="html=1;rounded=1;edgeStyle=orthogonalEdgeStyle;dashed=0;startArrow=diamondThinstartSize=12;endArrow=openThin;endSize=12;strokeColor=#595959;entryX=0.5;entryY=0;entryDx=0;entryDy=0;exitX=0.228;exitY=0.996;exitDx=0;exitDy=0;exitPerimeter=0;" parent="1" source="node10" edge="1" target="node8">
          <mxGeometry width="50" height="50" relative="1" as="geometry">
            <Array as="points" />
            <mxPoint x="-1430" y="450" as="targetPoint" />
            <mxPoint x="-1454" y="-1030" as="sourcePoint" />
          </mxGeometry>
        </mxCell>
        <mxCell id="qom05r-yQudLWFHHI4z3-1" value="Use" style="endArrow=open;endSize=12;dashed=1;html=1;rounded=0;exitX=0;exitY=0.5;exitDx=0;exitDy=0;entryX=1;entryY=0.5;entryDx=0;entryDy=0;" parent="1" source="node2" target="node9" edge="1">
          <mxGeometry width="160" relative="1" as="geometry">
            <mxPoint x="-1140" y="-346" as="sourcePoint" />
            <mxPoint x="-980" y="-346" as="targetPoint" />
          </mxGeometry>
        </mxCell>
        <mxCell id="qom05r-yQudLWFHHI4z3-2" value="Create" style="endArrow=open;endSize=12;dashed=1;html=1;rounded=1;exitX=0;exitY=0.5;exitDx=0;exitDy=0;entryX=0.5;entryY=0;entryDx=0;entryDy=0;" parent="1" source="node12" target="node15" edge="1">
          <mxGeometry width="160" relative="1" as="geometry">
            <mxPoint x="-740" y="-1276" as="sourcePoint" />
            <mxPoint x="-890" y="-1116" as="targetPoint" />
            <Array as="points">
              <mxPoint x="-990" y="-2100" />
            </Array>
          </mxGeometry>
        </mxCell>
        <mxCell id="qom05r-yQudLWFHHI4z3-3" value="Create" style="endArrow=open;endSize=12;dashed=1;html=1;entryX=0.25;entryY=0;entryDx=0;entryDy=0;rounded=1;exitX=1;exitY=0.5;exitDx=0;exitDy=0;" parent="1" source="node12" target="node0" edge="1">
          <mxGeometry width="160" relative="1" as="geometry">
            <mxPoint x="-500" y="-2016" as="sourcePoint" />
            <mxPoint x="-620" y="-1176" as="targetPoint" />
            <Array as="points">
              <mxPoint x="-300" y="-2100" />
            </Array>
          </mxGeometry>
        </mxCell>
        <mxCell id="qom05r-yQudLWFHHI4z3-4" value="Use" style="endArrow=open;endSize=12;dashed=1;html=1;rounded=0;entryX=0.5;entryY=0;entryDx=0;entryDy=0;exitX=0.5;exitY=1;exitDx=0;exitDy=0;" parent="1" source="node5" target="node12" edge="1">
          <mxGeometry width="160" relative="1" as="geometry">
            <mxPoint x="-680" y="-1526" as="sourcePoint" />
            <mxPoint x="-540" y="-1506" as="targetPoint" />
          </mxGeometry>
        </mxCell>
        <mxCell id="vMMgeW2UBoYrj-HaPnvI-1" value="" style="html=1;rounded=1;edgeStyle=orthogonalEdgeStyle;dashed=0;startArrow=diamondThinstartSize=12;endArrow=openThin;endSize=12;strokeColor=#595959;entryX=0.099;entryY=0.005;entryDx=0;entryDy=0;" edge="1" parent="1" target="node3">
          <mxGeometry width="50" height="50" relative="1" as="geometry">
            <Array as="points" />
            <mxPoint x="-1351" y="-1080" as="sourcePoint" />
            <mxPoint x="-864" y="-580" as="targetPoint" />
          </mxGeometry>
        </mxCell>
        <mxCell id="node3" value="&lt;p style=&quot;margin:0px;margin-top:4px;text-align:center;&quot;&gt;&lt;b&gt;GameProgress&lt;/b&gt;&lt;/p&gt;&lt;hr size=&quot;1&quot;/&gt;&lt;p style=&quot;margin:0 0 0 4px;line-height:1.6;&quot;&gt;+ GameProgress(BeginningConfiguration): &lt;/p&gt;&lt;hr size=&quot;1&quot;/&gt;&lt;p style=&quot;margin:0 0 0 4px;line-height:1.6;&quot;&gt;+ addMove(Move): void&lt;br/&gt;+ fromJSON(JSONObject): GameProgress&lt;br/&gt;+ resetProgress(): boolean&lt;br/&gt;+ toJSON(): JSONObject&lt;br/&gt;+ undoLastMove(): Move&lt;/p&gt;&lt;hr size=&quot;1&quot;/&gt;&lt;p style=&quot;margin:0 0 0 4px;line-height:1.6;&quot;&gt; beginConf: BeginningConfiguration&lt;br/&gt; movesCounter: int&lt;/p&gt;" style="verticalAlign=top;align=left;overflow=fill;fontSize=14;fontFamily=Helvetica;html=1;rounded=0;shadow=0;comic=0;labelBackgroundColor=none;strokeWidth=1;" parent="1" vertex="1">
          <mxGeometry x="-1380" y="-940" width="301" height="253" as="geometry" />
        </mxCell>
      </root>
    </mxGraphModel>
  </diagram>
</mxfile>
